<?xml version="1.0" encoding="UTF-8" standalone="no" ?>
<!DOCTYPE svg PUBLIC "-//W3C//DTD SVG 1.1//EN" "http://www.w3.org/Graphics/SVG/1.1/DTD/svg11.dtd">
<svg xmlns="http://www.w3.org/2000/svg" xmlns:xlink="http://www.w3.org/1999/xlink" version="1.1" width="48" height="48" viewBox="0 0 48 48" xml:space="preserve">
<desc>Created with Fabric.js 3.6.6</desc>
<defs>
</defs>
<g transform="matrix(1.19 0 0 1.19 24.1 24.1)"  >
<g style=""   >
		<g transform="matrix(1 0 0 1 0 0)"  >
<linearGradient id="SVGID_19" gradientUnits="userSpaceOnUse" gradientTransform="matrix(1 0 0 1 -24 -1028.36)"  x1="24" y1="1008.362" x2="24" y2="1048.362">
<stop offset="0%" style="stop-color:rgb(5,78,135);stop-opacity: 1"/>
<stop offset="100%" style="stop-color:rgb(29,153,243);stop-opacity: 1"/>
</linearGradient>
<circle style="stroke: none; stroke-width: 1; stroke-dasharray: none; stroke-linecap: round; stroke-dashoffset: 0; stroke-linejoin: round; stroke-miterlimit: 4; fill: url(#SVGID_19); fill-rule: nonzero; opacity: 1;"  cx="0" cy="0" r="20" />
</g>
		<g transform="matrix(1 0 0 1 6.37 -6.14)"  >
<linearGradient id="SVGID_20" gradientUnits="userSpaceOnUse" gradientTransform="matrix(1 0 0 1 5.98 -17.51)"  x1="21.085" y1="1036.975" x2="35.969" y2="1049.362">
<stop offset="0%" style="stop-color:rgb(49,54,59);stop-opacity: 0.208"/>
<stop offset="100%" style="stop-color:rgb(49,54,59);stop-opacity: 0"/>
</linearGradient>
<path style="stroke: none; stroke-width: 1; stroke-dasharray: none; stroke-linecap: butt; stroke-dashoffset: 0; stroke-linejoin: miter; stroke-miterlimit: 4; fill: url(#SVGID_20); fill-rule: evenodd; opacity: 1;"  transform=" translate(-30.37, -1022.22)" d="m 26.586 1028.0254 l 8.104641 -0.4201 l 1.91027 -6.7552 l -5.59099 -4.4419 l -6.871493 5.8329 z" stroke-linecap="round" />
</g>
		<g transform="matrix(1 0 0 1 8.5 -3.99)"  >
<linearGradient id="SVGID_21" gradientUnits="userSpaceOnUse" gradientTransform="matrix(1 0 0 1 10 -14)"  x1="21.969" y1="1035.362" x2="35.969" y2="1049.362">
<stop offset="0%" style="stop-color:rgb(49,54,59);stop-opacity: 0.208"/>
<stop offset="100%" style="stop-color:rgb(49,54,59);stop-opacity: 0"/>
</linearGradient>
<path style="stroke: none; stroke-width: 1; stroke-dasharray: none; stroke-linecap: butt; stroke-dashoffset: 0; stroke-linejoin: miter; stroke-miterlimit: 4; fill: url(#SVGID_21); fill-rule: evenodd; opacity: 1;"  transform=" translate(-32.5, -1024.37)" d="M 31.027515 1028.3568 L 35 1027.3622 l 1.976562 -2.9766 l -4 -4 l -4.949047 4.9712 z" stroke-linecap="round" />
</g>
		<g transform="matrix(1 0 0 1 5.15 4.66)"  >
<linearGradient id="SVGID_22" gradientUnits="userSpaceOnUse" gradientTransform="matrix(1 0 0 1 13 -1021.36)"  x1="23" y1="1035.362" x2="36" y2="1048.362">
<stop offset="0%" style="stop-color:rgb(49,54,59);stop-opacity: 0.208"/>
<stop offset="100%" style="stop-color:rgb(49,54,59);stop-opacity: 0"/>
</linearGradient>
<path style="stroke: none; stroke-width: 1; stroke-dasharray: none; stroke-linecap: butt; stroke-dashoffset: 0; stroke-linejoin: miter; stroke-miterlimit: 4; fill: url(#SVGID_22); fill-rule: evenodd; opacity: 1;"  transform=" translate(-29.15, -28.67)" d="M 35.923828 13.330078 C 37.206994 14.675942 38 16.493653 38 18.5 C 37.999999 22.642136 34.642135 26 30.5 26 C 30.296562 25.998503 30.093266 25.98873 29.890625 25.970703 L 23.994141 31.082031 C 23.985811 31.821647 23.840795 32.553348 23.566406 33.240234 C 22.329286 36.314593 18.834011 37.803823 15.759766 36.566406 C 15.516836 36.468652 15.288978 36.351194 15.066406 36.226562 C 15.023092 36.202165 14.980195 36.177812 14.9375 36.152344 C 14.726097 36.02697 14.523129 35.891762 14.332031 35.744141 C 14.325744 35.739266 14.318769 35.735369 14.3125 35.730469 L 14.300781 35.732422 L 22.494141 43.925781 C 22.994984 43.969391 23.497293 43.994196 24 44 A 20 20 0 0 0 25.310547 43.953125 C 25.377172 43.948811 25.443319 43.942465 25.509766 43.9375 A 20 20 0 0 0 27.355469 43.714844 C 27.387454 43.709437 27.419238 43.702824 27.451172 43.697266 A 20 20 0 0 0 28.847656 43.384766 C 29.088133 43.324783 29.329464 43.267819 29.566406 43.199219 A 20 20 0 0 0 30.783203 42.794922 C 31.004306 42.71508 31.227909 42.640071 31.445312 42.552734 A 20 20 0 0 0 32.59375 42.039062 C 32.813074 41.93437 33.035177 41.835015 33.25 41.722656 A 20 20 0 0 0 34.28125 41.130859 C 34.512955 40.99148 34.74914 40.859318 34.974609 40.710938 A 20 20 0 0 0 35.927734 40.025391 C 36.134023 39.871589 36.346828 39.725916 36.546875 39.564453 A 20 20 0 0 0 37.455078 38.767578 C 37.645187 38.594265 37.842101 38.428486 38.025391 38.248047 A 20 20 0 0 0 38.859375 37.355469 C 39.022801 37.173763 39.194793 37.000134 39.351562 36.8125 A 20 20 0 0 0 40.214844 35.675781 C 40.317207 35.533886 40.430598 35.400512 40.529297 35.255859 A 20 20 0 0 0 43.900391 25.998047 C 43.900454 25.997404 43.900327 25.996737 43.900391 25.996094 A 20 20 0 0 0 43.900391 25.990234 A 20 20 0 0 0 44 24 A 20 20 0 0 0 43.779297 21.185547 L 35.923828 13.330078 z" stroke-linecap="round" />
</g>
		<g transform="matrix(1 0 0 1 -6.19 6.73)"  >
<linearGradient id="SVGID_23" gradientUnits="userSpaceOnUse" gradientTransform="matrix(1 0 0 1 -6.33 -4.85)"  x1="21.085" y1="1036.975" x2="35.969" y2="1049.362">
<stop offset="0%" style="stop-color:rgb(49,54,59);stop-opacity: 0.208"/>
<stop offset="100%" style="stop-color:rgb(49,54,59);stop-opacity: 0"/>
</linearGradient>
<path style="stroke: none; stroke-width: 1; stroke-dasharray: none; stroke-linecap: butt; stroke-dashoffset: 0; stroke-linejoin: miter; stroke-miterlimit: 4; fill: url(#SVGID_23); fill-rule: evenodd; opacity: 1;"  transform=" translate(-17.82, -1035.09)" d="m 15.316486 1040.0683 l 6.358971 -0.6411 l 1.357843 -7.5507 l -6.629553 -1.7681 l -3.799998 4.5733 z" stroke-linecap="round" />
</g>
		<g transform="matrix(1 0 0 1 -5.83 8.36)"  >
<linearGradient id="SVGID_24" gradientUnits="userSpaceOnUse" gradientTransform="matrix(1 0 0 1 -2.87 -1.17)"  x1="21.969" y1="1035.362" x2="35.969" y2="1049.362">
<stop offset="0%" style="stop-color:rgb(49,54,59);stop-opacity: 0.208"/>
<stop offset="100%" style="stop-color:rgb(49,54,59);stop-opacity: 0"/>
</linearGradient>
<path style="stroke: none; stroke-width: 1; stroke-dasharray: none; stroke-linecap: butt; stroke-dashoffset: 0; stroke-linejoin: miter; stroke-miterlimit: 4; fill: url(#SVGID_24); fill-rule: evenodd; opacity: 1;"  transform=" translate(-18.17, -1036.72)" d="m 16.985332 1040.2339 l 3.972485 -0.4165 l 2.210937 -3.4453 l -3.0625 -3.1563 l -6.933422 3.9868 z" stroke-linecap="round" />
</g>
		<g transform="matrix(1 0 0 1 -9.87 12.62)"  >
<linearGradient id="SVGID_25" gradientUnits="userSpaceOnUse" gradientTransform="matrix(1 0 0 1 -15.75 -1005.86)"  x1="21.475" y1="1035.158" x2="34.475" y2="1048.158">
<stop offset="0%" style="stop-color:rgb(49,54,59);stop-opacity: 0.208"/>
<stop offset="100%" style="stop-color:rgb(49,54,59);stop-opacity: 0"/>
</linearGradient>
<path style="stroke: none; stroke-width: 1; stroke-dasharray: none; stroke-linecap: butt; stroke-dashoffset: 0; stroke-linejoin: miter; stroke-miterlimit: 4; fill: url(#SVGID_25); fill-rule: evenodd; opacity: 1;"  transform=" translate(-14.13, -36.62)" d="M 5.7695312 29.3125 L 19.363281 43.431641 A 20 20 0 0 0 22.494141 43.925781 L 14.300781 35.732422 L 12.298828 30.757812 L 5.7695312 29.3125 z" stroke-linecap="round" />
</g>
		<g transform="matrix(1 0 0 1 1 0)"  >
<path style="stroke: none; stroke-width: 1; stroke-dasharray: none; stroke-linecap: round; stroke-dashoffset: 0; stroke-linejoin: round; stroke-miterlimit: 4; fill: rgb(255,255,255); fill-rule: nonzero; opacity: 1;"  transform=" translate(-25, -24)" d="m 30.5 11 c -4.142135 0 -7.499999 3.357864 -7.5 7.5 c 0.0017 0.201484 0.01143 0.402819 0.0293 0.603516 c -1.289636 1.575722 -4.80544 5.546997 -5.113281 5.902343 c -2.416761 0.03284 -4.577852 1.51258 -5.482422 3.753907 c -1.237432 3.074241 0.2518 6.569519 3.326172 7.80664 c 3.074245 1.237417 6.56952 -0.251813 7.80664 -3.326172 c 0.274389 -0.686886 0.419405 -1.418587 0.427735 -2.158203 l 5.896484 -5.111328 C 30.093269 25.98873 30.296562 25.998503 30.5 26 C 34.642135 26 37.999999 22.642136 38 18.5 C 37.999999 14.357864 34.642135 11 30.5 11 Z m 0 3 c 2.48528 0 4.499999 2.014718 4.5 4.5 c -0.000001 2.485282 -2.01472 4.5 -4.5 4.5 c -2.48528 0 -4.499999 -2.014718 -4.5 -4.5 c 0.000001 -2.485282 2.01472 -4.5 4.5 -4.5 z M 18.046875 27 c 0.496175 0.0058 0.986949 0.103774 1.447266 0.289062 c 2.049689 0.825003 3.042263 3.155585 2.216797 5.205079 c -0.825003 2.049668 -3.155579 3.04224 -5.205079 2.216797 C 14.45617 33.885935 13.463596 31.555353 14.289062 29.505859 C 14.905127 27.975627 16.397393 26.980525 18.046875 27 Z" stroke-linecap="round" />
</g>
		<g transform="matrix(1 0 0 1 6.5 -5.5)"  >
<ellipse style="stroke: none; stroke-width: 1; stroke-dasharray: none; stroke-linecap: round; stroke-dashoffset: 0; stroke-linejoin: round; stroke-miterlimit: 4; fill: rgb(255,255,255); fill-rule: nonzero; opacity: 1;"  cx="0" cy="0" rx="3.5" ry="3.5" />
</g>
		<g transform="matrix(1 0 0 1 -11 4.28)"  >
<path style="stroke: none; stroke-width: 1; stroke-dasharray: none; stroke-linecap: round; stroke-dashoffset: 0; stroke-linejoin: round; stroke-miterlimit: 4; fill: rgb(255,255,255); fill-rule: nonzero; opacity: 1;"  transform=" translate(-13, -28.28)" d="M 5.0722656 22.564453 A 19 19 0 0 0 5 24 A 19 19 0 0 0 5.7695312 29.3125 L 16.880859 33.783203 A 3 3 0 0 0 20.783203 32.119141 A 3 3 0 0 0 19.119141 28.216797 L 5.0722656 22.564453 z" stroke-linecap="round" />
</g>
</g>
</g>
<g transform="matrix(1 0 0 1 24.33 32.67)"  >
<line style="stroke: rgb(0,0,0); stroke-width: 2; stroke-dasharray: none; stroke-linecap: butt; stroke-dashoffset: 0; stroke-linejoin: miter; stroke-miterlimit: 4; fill: rgb(0,0,0); fill-rule: nonzero; opacity: 1;"  x1="0" y1="0" x2="0" y2="0" />
</g>
</svg>